#!OML:ASF F:\VICON\USERDATA\INSTALL\rory3\rory3.ASF
:FULLY-SPECIFIED
:DEGREES
2330
root -0.179289 16.4208 -2.1552 11.238 0.631089 -1.32204
lowerback 24.8705 2.06474 -4.00145
upperback 13.359 1.79164 -0.93783
thorax 0.886083 0.716703 0.841574
lowerneck -3.07587 -8.30976 -15.9364
upperneck -1.61067 -11.1882 27.7257
head 2.78124 -5.47632 10.9755
rclavicle 4.37326e-015 -1.35174e-014
rhumerus 16.5396 -7.0982 -81.8983
rradius 18.9219
rwrist 32.4852
rhand -7.95816 7.68994
rfingers 7.12502
rthumb 17.9491 -21.5018
lclavicle 4.37326e-015 -1.35174e-014
lhumerus 33.0831 51.0704 78.6948
lradius 3.28212
lwrist 19.9148
lhand -36.2868 36.6841
lfingers 7.12502
lthumb -9.38651 66.4551
rfemur -38.439 -5.88246 22.2285
rtibia 46.1525
rfoot -27.3398 -2.82171
rtoes -21.6665
lfemur -39.2802 3.46025 -15.4318
ltibia 48.0805
lfoot -19.4744 -2.3024
ltoes -16.138
2331
root -0.17351 16.4041 -2.15478 11.1143 0.204922 -1.52928
lowerback 25.0065 2.11002 -4.12652
upperback 13.3359 1.8048 -1.10538
thorax 0.799309 0.722329 0.724798
lowerneck -3.10659 -8.28178 -15.8329
upperneck -1.53185 -11.1676 27.7394
head 2.79823 -5.46201 10.9623
rclavicle -2.82274e-014 3.26007e-014
rhumerus 15.9934 -1.86686 -80.2292
rradius 20.1677
rwrist 29.5941
rhand -6.98835 7.09654
rfingers 7.12502
rthumb 18.882 -22.007
lclavicle -2.82274e-014 3.26007e-014
lhumerus 33.4145 50.7758 79.5243
lradius 3.03185
lwrist 19.2743
lhand -36.3695 36.8815
lfingers 7.12502
lthumb -9.4663 66.6489
rfemur -38.4983 -5.76579 22.4496
rtibia 46.2277
rfoot -27.3615 -2.71333
rtoes -22.4889
lfemur -39.282 3.62402 -15.2276
ltibia 48.5265
lfoot -19.6383 -1.88537
ltoes -16.7359
2332
root -0.166484 16.3918 -2.15432 10.9815 -0.174208 -1.71404
lowerback 25.0726 2.11884 -4.19524
upperback 13.3376 1.78811 -1.28464
thorax 0.775983 0.715766 0.572458
lowerneck -3.06168 -8.23489 -15.7557
upperneck -1.48791 -11.1212 27.7697
head 2.78897 -5.44163 10.9664
rclavicle 7.95139e-016 -1.19271e-014
rhumerus 15.4825 3.90839 -78.308
rradius 21.8378
rwrist 26.1129
rhand -5.94507 6.31707
rfingers 7.12502
rthumb 19.8852 -22.6856
lclavicle 7.95139e-016 -1.19271e-014
lhumerus 33.856 50.4279 80.443
lradius 2.6101
lwrist 18.1879
lhand -35.9144 37.1522
lfingers 7.12502
lthumb -9.02722 66.939
rfemur -38.346 -5.65216 22.5871
rtibia 46.3088
rfoot -27.596 -2.25757
rtoes -21.8119
lfemur -39.248 3.73943 -15.0493
ltibia 48.9213
lfoot -19.8028 -1.602
ltoes -16.8643
2333
root -0.158493 16.3835 -2.15178 10.8394 -0.62475 -1.83831
lowerback 25.057 2.17724 -4.38265
upperback 13.3586 1.81434 -1.47864
thorax 0.810258 0.723606 0.463161
lowerneck -2.89515 -8.14332 -15.5714
upperneck -1.56765 -11.0006 27.7539
head 2.696 -5.3988 10.9472
rclavicle -9.54166e-015 5.1684e-015
rhumerus 15.0317 9.70785 -76.3041
rradius 24.0205
rwrist 22.6117
rhand -4.35254 5.58078
rfingers 7.12502
rthumb 21.4154 -23.2556
lclavicle -9.54166e-015 5.1684e-015
lhumerus 34.1571 50.0608 81.3925
lradius 2.558
lwrist 16.9268
lhand -35.2492 37.3848
lfingers 7.12502
lthumb -8.38526 67.1983
rfemur -38.1639 -5.49904 22.6471
rtibia 46.3552
rfoot -27.8185 -1.78934
rtoes -21.2522
lfemur -39.1399 3.88582 -14.9457
ltibia 49.2439
lfoot -20.0071 -1.32637
ltoes -16.6353
2334
root -0.152081 16.3781 -2.14885 10.7118 -1.07489 -2.04397
lowerback 25.0793 2.27864 -4.60846
upperback 13.362 1.88473 -1.63147
thorax 0.803559 0.750115 0.408142
lowerneck -2.77835 -8.09054 -15.3079
upperneck -1.57673 -10.9427 27.6896
head 2.63731 -5.38065 10.8859
rclavicle 2.46493e-014 -1.74931e-014
rhumerus 14.7698 15.6828 -74.0269
rradius 26.6246
rwrist 18.7047
rhand -2.78443 4.95824
rfingers 7.12502
rthumb 22.9208 -23.6994
lclavicle 2.46493e-014 -1.74931e-014
lhumerus 34.3413 49.662 82.3938
lradius 2.84593
lwrist 15.5656
lhand -34.2649 37.2146
lfingers 7.12502
lthumb -7.43529 67.0639
rfemur -38.1502 -5.31858 22.865
rtibia 46.3518
rfoot -27.7974 -1.69016
rtoes -22.0005
lfemur -39.0147 4.00941 -14.7282
ltibia 49.5126
lfoot -20.1724 -0.952382
ltoes -16.6741
2335
root -0.147553 16.375 -2.14622 10.5934 -1.458 -2.29592
lowerback 25.24 2.32488 -4.7704
upperback 13.2851 1.88476 -1.82754
thorax 0.646219 0.750341 0.282301
lowerneck -2.78305 -8.01949 -15.0266
upperneck -1.39545 -10.8887 27.726
head 2.66113 -5.34714 10.8525
rclavicle -1.59028e-014 1.03368e-014
rhumerus 14.6697 21.6061 -71.6935
rradius 29.5554
rwrist 14.7407
rhand -1.92317 4.4284
rfingers 7.12502
rthumb 23.7471 -24.1243
lclavicle -1.59028e-014 1.03368e-014
lhumerus 34.4164 49.2643 83.2143
lradius 3.07972
lwrist 13.8231
lhand -33.0622 36.4789
lfingers 7.12502
lthumb -6.27422 66.366
rfemur -38.1156 -5.13848 23.1389
rtibia 46.3383
rfoot -27.7421 -1.7124
rtoes -22.8343
lfemur -38.8928 4.08919 -14.4506
ltibia 49.791
lfoot -20.351 -0.572461
ltoes -16.7227
2336
root -0.13714 16.3701 -2.14398 10.5207 -1.71169 -2.43323
lowerback 25.424 2.25489 -4.83381
upperback 13.1703 1.75326 -2.11946
thorax 0.444572 0.696502 0.0280296
lowerneck -2.86138 -7.93061 -14.742
upperneck -1.10398 -10.8269 27.8033
head 2.73016 -5.29892 10.8312
rclavicle -7.95139e-016 -2.8625e-014
rhumerus 14.5776 26.6401 -69.7123
rradius 32.7732
rwrist 11.5812
rhand -1.22276 4.23674
rfingers 7.12502
rthumb 24.4187 -24.2271
lclavicle -7.95139e-016 -2.8625e-014
lhumerus 34.4027 48.8688 83.9535
lradius 3.35173
lwrist 11.7278
lhand -31.6562 35.5356
lfingers 7.12502
lthumb -4.9168 65.4585
rfemur -37.9574 -5.01961 23.188
rtibia 46.3863
rfoot -27.9955 -1.34404
rtoes -21.9811
lfemur -38.8645 4.01018 -14.3042
ltibia 50.0822
lfoot -20.529 -0.239797
ltoes -16.5782
2337
root -0.123709 16.353 -2.14263 10.4189 -1.83633 -2.64991
lowerback 25.4947 2.14199 -4.73478
upperback 13.1803 1.61816 -2.33458
thorax 0.435044 0.642064 -0.229368
lowerneck -2.93657 -7.87265 -14.5811
upperneck -0.938448 -10.783 27.8943
head 2.77681 -5.26546 10.8364
rclavicle 7.95139e-016 2.38542e-014
rhumerus 14.6268 30.8031 -67.7272
rradius 36.3151
rwrist 9.00143
rhand -0.687152 4.09226
rfingers 7.12502
rthumb 24.932 -24.3014
lclavicle 7.95139e-016 2.38542e-014
lhumerus 34.5019 48.4478 85.0375
lradius 3.92868
lwrist 9.38111
lhand -29.6657 34.3323
lfingers 7.12502
lthumb -2.99457 64.2911
rfemur -37.8107 -5.05877 23.343
rtibia 46.494
rfoot -28.309 -0.87904
rtoes -21.0728
lfemur -38.8983 3.87042 -14.0653
ltibia 50.4173
lfoot -20.6846 0.0823123
ltoes -16.9505
2338
root -0.114543 16.3408 -2.14162 10.2925 -2.0497 -2.89973
lowerback 25.513 2.15654 -4.82731
upperback 13.2548 1.61216 -2.44625
thorax 0.513597 0.635094 -0.296459
lowerneck -2.95326 -7.84749 -14.3897
upperneck -0.891797 -10.7654 27.9207
head 2.77905 -5.25504 10.8116
rclavicle 3.97569e-015 -2.06736e-014
rhumerus 14.8231 34.328 -65.64
rradius 40.0658
rwrist 6.73391
rhand -0.342407 3.63113
rfingers 7.12502
rthumb 25.2624 -24.7163
lclavicle 3.97569e-015 -2.06736e-014
lhumerus 34.916 47.9026 86.463
lradius 4.43809
lwrist 7.17256
lhand -28.116 33.431
lfingers 7.12502
lthumb -1.49796 63.4055
rfemur -37.7655 -5.03935 23.5953
rtibia 46.6111
rfoot -28.314 -0.702804
rtoes -20.9542
lfemur -38.8562 3.83295 -13.7903
ltibia 50.718
lfoot -20.8238 0.35481
ltoes -17.2462
2339
root -0.106305 16.3406 -2.13949 10.2042 -2.28552 -3.08687
lowerback 25.5161 2.20462 -5.04541
upperback 13.2782 1.62088 -2.55917
thorax 0.540273 0.630256 -0.297862
lowerneck -2.88457 -7.79383 -14.2117
upperneck -0.873085 -10.7095 27.9684
head 2.75184 -5.23283 10.8047
rclavicle -5.56597e-015 4.21423e-014
rhumerus 14.9912 37.4351 -63.6704
rradius 43.9
rwrist 4.59509
rhand -0.325236 3.39961
rfingers 7.12502
rthumb 25.2788 -24.9455
lclavicle -5.56597e-015 4.21423e-014
lhumerus 35.1274 47.3493 87.8306
lradius 5.21051
lwrist 4.90369
lhand -26.5567 33.2572
lfingers 7.12502
lthumb 0.00805939 63.237
rfemur -37.6875 -4.98566 23.7724
rtibia 46.635
rfoot -28.2733 -0.592421
rtoes -20.6623
lfemur -38.7971 3.82254 -13.5979
ltibia 50.9723
lfoot -20.9864 0.687745
ltoes -17.8653
